<?xml version="1.0" encoding="UTF-8"?>
<svg id="Janitza Logo" xmlns="http://www.w3.org/2000/svg" version="1.1" viewBox="0 0 155 56" width="155" height="56" >
  <!-- Generator: Adobe Illustrator 29.7.1, SVG Export Plug-In . SVG Version: 2.1.1 Build 8)  -->
  <defs>
    <style>
      .st0 {
        fill-rule: evenodd;
      }
    </style>
  </defs>
  <path class="st0" d="M84.6,16.2l-.8,4.5h-6.3l.8-4.5h6.3ZM83.4,23.3l-2.9,16.2h-6.3l2.9-16.2h6.3ZM22.2,17l-2.7,15.3h0c-1.1,6.1-4.5,7.4-10.8,7.4S-.8,39.1.1,33.6l.4-2.2h6.1v.8c-.3,1.1-.5,1.9-.2,2.4.3.6,1,.8,2.8.8s2.6-.2,3.2-.8c.4-.5.6-1.1.8-2.1l2.8-15.6h6.3ZM43.4,39.5h0s0,0,0,0h0ZM45.2,29.5l-1.8,10h-5.9v-1.2c-1.9.9-5.4,1.5-7.6,1.5s-3.9-.2-5.1-1.3c-1-.9-1.3-2-1-4,.8-4.7,5.6-5,10-5s4,.2,4.9.4l.2-.9c.2-1.2.3-1.8,0-2.2-.4-.4-1-.6-2.6-.6h-1c-.9,0-1.8,0-2.3.4-.4.2-.6.7-.7,1.3v.3h-6.4v-.5c.9-4.4,5.7-4.9,10.5-4.9s6.3,0,7.8,1.4c1.1,1,1.5,2.4,1,5.1ZM33.3,36.4c1.5,0,3.6-.4,4.5-.8l.5-2.9c-1.1-.1-2.8-.2-3.8-.2-2.9,0-3.7.6-4,2,0,.6,0,1,.2,1.3.4.4,1.1.6,2.6.6ZM68.7,39.5l1.7-9.5c.4-2.5.4-4.1-.5-5.3-.9-1.2-2.6-1.7-5-1.7s-5.4.8-7.4,1.8v-1.4c.1,0-5.8,0-5.8,0l-2.9,16.2h6.3l2.1-11.8c1-.3,3.1-.8,4.2-.8s1.9.2,2.3.6c.4.4.4,1.1.2,2.4l-1.7,9.6h6.3,0ZM102.8,34.6v-.8c.1,0-5.7,0-5.7,0l-.2,1.1c-.2,1.1-.6,1.4-2,1.4h-.4c-1.2,0-1.5-.4-1.2-1.6l1.4-8.1h7.9l.6-3.3h-7.9l.7-4.2-6.5,1.1-.5,3.1h-2.6l-.6,3.3h2.6l-1.3,7.5c-.4,2.2-.2,3.6.6,4.4,1.1,1.1,3,1.3,6.1,1.3s8.2-.6,9-5.2h0ZM121.7,35.6l-.7,3.9h-16.8l.7-3.9,10.3-8.4h-8.3l.7-3.9h15.8l-.7,3.8-10.3,8.5h9.4ZM144.6,39.5h0s0,0,0,0h0ZM144.6,39.5l1.8-10c.5-2.7.1-4.1-1-5.1-1.5-1.3-4.3-1.4-7.8-1.4s-9.6.4-10.4,4.9v.5c0,0,6.3,0,6.3,0v-.3c.2-.7.4-1.1.8-1.3.6-.4,1.4-.4,2.3-.4h1c1.6,0,2.2.2,2.6.6.3.3.2.9,0,2.2l-.2.9c-1-.2-3.2-.4-4.9-.4-4.4,0-9.2.3-10,5-.4,2,0,3.1,1,4,1.2,1.1,3.6,1.3,5.1,1.3,2.2,0,5.6-.6,7.7-1.5v1.2c-.1,0,5.8,0,5.8,0ZM139,35.5c-.9.4-3,.8-4.5.8s-2.2-.2-2.6-.6c-.3-.3-.3-.8-.2-1.3.3-1.4,1.1-2,4-2s2.7.1,3.8.2l-.5,2.9Z"/>
</svg>